<?xml version="1.0" encoding="UTF-8" standalone="no"?><svg xmlns="http://www.w3.org/2000/svg" xmlns:xlink="http://www.w3.org/1999/xlink" contentScriptType="application/ecmascript" contentStyleType="text/css" height="899px" preserveAspectRatio="none" style="width:2741px;height:899px;background:#FFFFFF;" version="1.1" viewBox="0 0 2741 899" width="2741px" zoomAndPan="magnify"><defs><filter height="300%" id="f6035cggxkntr" width="300%" x="-1" y="-1"><feGaussianBlur result="blurOut" stdDeviation="2.0"/><feColorMatrix in="blurOut" result="blurOut2" type="matrix" values="0 0 0 0 0 0 0 0 0 0 0 0 0 0 0 0 0 0 .4 0"/><feOffset dx="4.0" dy="4.0" in="blurOut2" result="blurOut3"/><feBlend in="SourceGraphic" in2="blurOut3" mode="normal"/></filter></defs><g><!--MD5=[6fc32771074c023f4028e9d3868a8b69]
class MessagesErreur--><rect codeLine="1" fill="#FEFECE" filter="url(#f6035cggxkntr)" height="73.6094" id="MessagesErreur" style="stroke:#A80036;stroke-width:1.5;" width="127" x="149" y="109"/><ellipse cx="164" cy="125" fill="#B4A7E5" rx="11" ry="11" style="stroke:#A80036;stroke-width:1.0;"/><path d="M164.9531,121.7813 L166.6719,121.7813 C167.0625,121.7813 167.25,121.75 167.375,121.6719 C167.6406,121.5156 167.7813,121.2344 167.7813,120.9375 C167.7813,120.6719 167.6719,120.4063 167.4375,120.2344 C167.2656,120.125 167.125,120.0938 166.6719,120.0938 L161.5313,120.0938 C161.0938,120.0938 160.9688,120.1094 160.8125,120.2031 C160.5625,120.3594 160.4063,120.6563 160.4063,120.9375 C160.4063,121.2188 160.5469,121.4688 160.7656,121.6406 C160.9219,121.75 161.1094,121.7813 161.5313,121.7813 L163.25,121.7813 L163.25,128.2969 L161.5313,128.2969 C161.0938,128.2969 160.9688,128.3125 160.8125,128.4219 C160.5625,128.5781 160.4063,128.8594 160.4063,129.1563 C160.4063,129.4063 160.5469,129.6719 160.7656,129.8281 C160.9219,129.9531 161.125,130 161.5313,130 L166.6719,130 C167.4219,130 167.7813,129.7188 167.7813,129.1563 C167.7813,128.875 167.6719,128.625 167.4375,128.4531 C167.2656,128.3281 167.125,128.2969 166.6719,128.2969 L164.9531,128.2969 L164.9531,121.7813 Z " fill="#000000"/><text fill="#000000" font-family="sans-serif" font-size="12" font-style="italic" lengthAdjust="spacing" textLength="95" x="178" y="129.1543">MessagesErreur</text><line style="stroke:#A80036;stroke-width:1.5;" x1="150" x2="275" y1="141" y2="141"/><ellipse cx="160" cy="152" rx="3" ry="3" style="stroke:#038048;stroke-width:1.0;fill:none;"/><text fill="#000000" font-family="sans-serif" font-size="11" lengthAdjust="spacing" textLength="79" x="169" y="155.2104">requis?: string</text><ellipse cx="160" cy="164.8047" rx="3" ry="3" style="stroke:#038048;stroke-width:1.0;fill:none;"/><text fill="#000000" font-family="sans-serif" font-size="11" lengthAdjust="spacing" textLength="85" x="169" y="168.0151">pattern?: string</text><line style="stroke:#A80036;stroke-width:1.5;" x1="150" x2="275" y1="174.6094" y2="174.6094"/><!--MD5=[188985a6a1117471a3ad131d391d58a8]
class ValidationInput--><rect codeLine="5" fill="#FEFECE" filter="url(#f6035cggxkntr)" height="278.4844" id="ValidationInput" style="stroke:#A80036;stroke-width:1.5;" width="423" x="1777" y="7"/><ellipse cx="1940.75" cy="23" fill="#ADD1B2" rx="11" ry="11" style="stroke:#A80036;stroke-width:1.0;"/><path d="M1943.0938,18.6719 C1942.1563,18.2344 1941.5625,18.0938 1940.6875,18.0938 C1938.0625,18.0938 1936.0625,20.1719 1936.0625,22.8906 L1936.0625,24.0156 C1936.0625,26.5938 1938.1719,28.4844 1941.0625,28.4844 C1942.2813,28.4844 1943.4375,28.1875 1944.1875,27.6406 C1944.7656,27.2344 1945.0938,26.7813 1945.0938,26.3906 C1945.0938,25.9375 1944.7031,25.5469 1944.2344,25.5469 C1944.0156,25.5469 1943.8125,25.625 1943.625,25.8125 C1943.1719,26.2969 1943.1719,26.2969 1942.9844,26.3906 C1942.5625,26.6563 1941.875,26.7813 1941.1094,26.7813 C1939.0625,26.7813 1937.7656,25.6875 1937.7656,23.9844 L1937.7656,22.8906 C1937.7656,21.1094 1939.0156,19.7969 1940.75,19.7969 C1941.3281,19.7969 1941.9375,19.9531 1942.4063,20.2031 C1942.8906,20.4844 1943.0625,20.7031 1943.1563,21.1094 C1943.2188,21.5156 1943.25,21.6406 1943.3906,21.7656 C1943.5313,21.9063 1943.7656,22.0156 1943.9844,22.0156 C1944.25,22.0156 1944.5156,21.875 1944.6875,21.6563 C1944.7969,21.5 1944.8281,21.3125 1944.8281,20.8906 L1944.8281,19.4688 C1944.8281,19.0313 1944.8125,18.9063 1944.7188,18.75 C1944.5625,18.4844 1944.2813,18.3438 1943.9844,18.3438 C1943.6875,18.3438 1943.4844,18.4375 1943.2656,18.75 L1943.0938,18.6719 Z " fill="#000000"/><text fill="#000000" font-family="sans-serif" font-size="12" lengthAdjust="spacing" textLength="87" x="1961.25" y="27.1543">ValidationInput</text><line style="stroke:#A80036;stroke-width:1.5;" x1="1778" x2="2199" y1="39" y2="39"/><ellipse cx="1788" cy="50" rx="3" ry="3" style="stroke:#038048;stroke-width:1.0;fill:none;"/><text fill="#000000" font-family="sans-serif" font-size="11" lengthAdjust="spacing" textLength="115" x="1797" y="53.2104">nomEtiquette: string</text><ellipse cx="1788" cy="62.8047" rx="3" ry="3" style="stroke:#038048;stroke-width:1.0;fill:none;"/><text fill="#000000" font-family="sans-serif" font-size="11" lengthAdjust="spacing" textLength="141" x="1797" y="66.0151">refChamp: HTMLElement</text><ellipse cx="1788" cy="75.6094" rx="3" ry="3" style="stroke:#038048;stroke-width:1.0;fill:none;"/><text fill="#000000" font-family="sans-serif" font-size="11" lengthAdjust="spacing" textLength="157" x="1797" y="78.8198">refInput: HTMLInputElement</text><ellipse cx="1788" cy="88.4141" rx="3" ry="3" style="stroke:#038048;stroke-width:1.0;fill:none;"/><text fill="#000000" font-family="sans-serif" font-size="11" lengthAdjust="spacing" textLength="135" x="1797" y="91.6245">refErreur: HTMLElement</text><ellipse cx="1788" cy="101.2188" rx="3" ry="3" style="stroke:#038048;stroke-width:1.0;fill:none;"/><text fill="#000000" font-family="sans-serif" font-size="11" lengthAdjust="spacing" textLength="169" x="1797" y="104.4292">messageErreurCourant: string</text><ellipse cx="1788" cy="114.0234" rx="3" ry="3" style="stroke:#038048;stroke-width:1.0;fill:none;"/><text fill="#000000" font-family="sans-serif" font-size="11" lengthAdjust="spacing" textLength="191" x="1797" y="117.2339">messagesErreur: MessagesErreur</text><polygon fill="none" points="1788,121.8281,1792,125.8281,1788,129.8281,1784,125.8281" style="stroke:#B38D22;stroke-width:1.0;"/><text fill="#000000" font-family="sans-serif" font-size="11" lengthAdjust="spacing" textLength="160" x="1797" y="130.0386">estPretAEtreValide: boolean</text><polygon fill="none" points="1788,134.6328,1792,138.6328,1788,142.6328,1784,138.6328" style="stroke:#B38D22;stroke-width:1.0;"/><text fill="#000000" font-family="sans-serif" font-size="11" lengthAdjust="spacing" textLength="397" x="1797" y="142.8433">eventVerifierEstPretAEtreValide: EventListenerOrEventListenerObject</text><polygon fill="none" points="1788,147.4375,1792,151.4375,1788,155.4375,1784,151.4375" style="stroke:#B38D22;stroke-width:1.0;"/><text fill="#000000" font-family="sans-serif" font-size="11" lengthAdjust="spacing" textLength="289" x="1797" y="155.6479">eventValider: EventListenerOrEventListenerObject</text><line style="stroke:#A80036;stroke-width:1.5;" x1="1778" x2="2199" y1="162.2422" y2="162.2422"/><ellipse cx="1788" cy="173.2422" fill="#84BE84" rx="3" ry="3" style="stroke:#038048;stroke-width:1.0;"/><text fill="#000000" font-family="sans-serif" font-size="11" lengthAdjust="spacing" textLength="100" x="1797" y="176.4526">valider(): boolean</text><ellipse cx="1788" cy="186.0469" fill="#84BE84" rx="3" ry="3" style="stroke:#038048;stroke-width:1.0;"/><text fill="#000000" font-family="sans-serif" font-size="11" lengthAdjust="spacing" textLength="150" x="1797" y="189.2573">forcerValidation(): boolean</text><ellipse cx="1788" cy="198.8516" fill="#84BE84" rx="3" ry="3" style="stroke:#038048;stroke-width:1.0;"/><text fill="#000000" font-family="sans-serif" font-size="11" lengthAdjust="spacing" textLength="102" x="1797" y="202.062">reinitialiser(): void</text><polygon fill="#FFFF44" points="1788,206.6563,1792,210.6563,1788,214.6563,1784,210.6563" style="stroke:#B38D22;stroke-width:1.0;"/><text fill="#000000" font-family="sans-serif" font-size="11" lengthAdjust="spacing" textLength="208" x="1797" y="214.8667">ajouterEcouteursEvenements(): void</text><polygon fill="#FFFF44" points="1788,219.4609,1792,223.4609,1788,227.4609,1784,223.4609" style="stroke:#B38D22;stroke-width:1.0;"/><text fill="#000000" font-family="sans-serif" font-size="11" lengthAdjust="spacing" textLength="203" x="1797" y="227.6714">retirerEcouteursEvenements(): void</text><polygon fill="#FFFF44" points="1788,232.2656,1792,236.2656,1788,240.2656,1784,236.2656" style="stroke:#B38D22;stroke-width:1.0;"/><text fill="#000000" font-family="sans-serif" font-size="11" lengthAdjust="spacing" textLength="181" x="1797" y="240.4761">validerAttributPattern(): boolean</text><polygon fill="#FFFF44" points="1788,245.0703,1792,249.0703,1788,253.0703,1784,249.0703" style="stroke:#B38D22;stroke-width:1.0;"/><text fill="#000000" font-family="sans-serif" font-size="11" lengthAdjust="spacing" textLength="167" x="1797" y="253.2808">afficherMessageErreur(): void</text><polygon fill="#FFFF44" points="1788,257.875,1792,261.875,1788,265.875,1784,261.875" style="stroke:#B38D22;stroke-width:1.0;"/><text fill="#000000" font-family="sans-serif" font-size="11" lengthAdjust="spacing" textLength="159" x="1797" y="266.0854">retirerMessageErreur(): void</text><rect fill="#F24D5C" height="6" style="stroke:#C82930;stroke-width:1.0;" width="6" x="1785" y="272.6797"/><text fill="#000000" font-family="sans-serif" font-size="11" lengthAdjust="spacing" textLength="186" x="1797" y="278.8901">verifierEstPretAEtreValide(): void</text><!--MD5=[a358031350a34bde66c05e5906d46a67]
class ValidationPseudonyme--><rect codeLine="25" fill="#FEFECE" filter="url(#f6035cggxkntr)" height="73.6094" id="ValidationPseudonyme" style="stroke:#A80036;stroke-width:1.5;" width="167" x="1260" y="428"/><ellipse cx="1275" cy="444" fill="#ADD1B2" rx="11" ry="11" style="stroke:#A80036;stroke-width:1.0;"/><path d="M1277.3438,439.6719 C1276.4063,439.2344 1275.8125,439.0938 1274.9375,439.0938 C1272.3125,439.0938 1270.3125,441.1719 1270.3125,443.8906 L1270.3125,445.0156 C1270.3125,447.5938 1272.4219,449.4844 1275.3125,449.4844 C1276.5313,449.4844 1277.6875,449.1875 1278.4375,448.6406 C1279.0156,448.2344 1279.3438,447.7813 1279.3438,447.3906 C1279.3438,446.9375 1278.9531,446.5469 1278.4844,446.5469 C1278.2656,446.5469 1278.0625,446.625 1277.875,446.8125 C1277.4219,447.2969 1277.4219,447.2969 1277.2344,447.3906 C1276.8125,447.6563 1276.125,447.7813 1275.3594,447.7813 C1273.3125,447.7813 1272.0156,446.6875 1272.0156,444.9844 L1272.0156,443.8906 C1272.0156,442.1094 1273.2656,440.7969 1275,440.7969 C1275.5781,440.7969 1276.1875,440.9531 1276.6563,441.2031 C1277.1406,441.4844 1277.3125,441.7031 1277.4063,442.1094 C1277.4688,442.5156 1277.5,442.6406 1277.6406,442.7656 C1277.7813,442.9063 1278.0156,443.0156 1278.2344,443.0156 C1278.5,443.0156 1278.7656,442.875 1278.9375,442.6563 C1279.0469,442.5 1279.0781,442.3125 1279.0781,441.8906 L1279.0781,440.4688 C1279.0781,440.0313 1279.0625,439.9063 1278.9688,439.75 C1278.8125,439.4844 1278.5313,439.3438 1278.2344,439.3438 C1277.9375,439.3438 1277.7344,439.4375 1277.5156,439.75 L1277.3438,439.6719 Z " fill="#000000"/><text fill="#000000" font-family="sans-serif" font-size="12" lengthAdjust="spacing" textLength="135" x="1289" y="448.1543">ValidationPseudonyme</text><line style="stroke:#A80036;stroke-width:1.5;" x1="1261" x2="1426" y1="460" y2="460"/><ellipse cx="1271" cy="471" rx="3" ry="3" style="stroke:#038048;stroke-width:1.0;fill:none;"/><text fill="#000000" font-family="sans-serif" font-size="11" lengthAdjust="spacing" textLength="136" x="1280" y="474.2104">idsIndisponibles: string[]</text><line style="stroke:#A80036;stroke-width:1.5;" x1="1261" x2="1426" y1="480.8047" y2="480.8047"/><ellipse cx="1271" cy="491.8047" fill="#84BE84" rx="3" ry="3" style="stroke:#038048;stroke-width:1.0;"/><text fill="#000000" font-family="sans-serif" font-size="11" lengthAdjust="spacing" textLength="100" x="1280" y="495.0151">valider(): boolean</text><!--MD5=[38ab3c5135aa3096e0271d46f66b31ac]
class ValidationCourrielConfirmation--><rect codeLine="29" fill="#FEFECE" filter="url(#f6035cggxkntr)" height="73.6094" id="ValidationCourrielConfirmation" style="stroke:#A80036;stroke-width:1.5;" width="303" x="1462" y="428"/><ellipse cx="1519.25" cy="444" fill="#ADD1B2" rx="11" ry="11" style="stroke:#A80036;stroke-width:1.0;"/><path d="M1521.5938,439.6719 C1520.6563,439.2344 1520.0625,439.0938 1519.1875,439.0938 C1516.5625,439.0938 1514.5625,441.1719 1514.5625,443.8906 L1514.5625,445.0156 C1514.5625,447.5938 1516.6719,449.4844 1519.5625,449.4844 C1520.7813,449.4844 1521.9375,449.1875 1522.6875,448.6406 C1523.2656,448.2344 1523.5938,447.7813 1523.5938,447.3906 C1523.5938,446.9375 1523.2031,446.5469 1522.7344,446.5469 C1522.5156,446.5469 1522.3125,446.625 1522.125,446.8125 C1521.6719,447.2969 1521.6719,447.2969 1521.4844,447.3906 C1521.0625,447.6563 1520.375,447.7813 1519.6094,447.7813 C1517.5625,447.7813 1516.2656,446.6875 1516.2656,444.9844 L1516.2656,443.8906 C1516.2656,442.1094 1517.5156,440.7969 1519.25,440.7969 C1519.8281,440.7969 1520.4375,440.9531 1520.9063,441.2031 C1521.3906,441.4844 1521.5625,441.7031 1521.6563,442.1094 C1521.7188,442.5156 1521.75,442.6406 1521.8906,442.7656 C1522.0313,442.9063 1522.2656,443.0156 1522.4844,443.0156 C1522.75,443.0156 1523.0156,442.875 1523.1875,442.6563 C1523.2969,442.5 1523.3281,442.3125 1523.3281,441.8906 L1523.3281,440.4688 C1523.3281,440.0313 1523.3125,439.9063 1523.2188,439.75 C1523.0625,439.4844 1522.7813,439.3438 1522.4844,439.3438 C1522.1875,439.3438 1521.9844,439.4375 1521.7656,439.75 L1521.5938,439.6719 Z " fill="#000000"/><text fill="#000000" font-family="sans-serif" font-size="12" lengthAdjust="spacing" textLength="180" x="1539.75" y="448.1543">ValidationCourrielConfirmation</text><line style="stroke:#A80036;stroke-width:1.5;" x1="1463" x2="1764" y1="460" y2="460"/><rect fill="none" height="6" style="stroke:#C82930;stroke-width:1.0;" width="6" x="1470" y="468"/><text fill="#000000" font-family="sans-serif" font-size="11" lengthAdjust="spacing" textLength="277" x="1482" y="474.2104">inputCourrielCourantElement: HTMLInputElement</text><line style="stroke:#A80036;stroke-width:1.5;" x1="1463" x2="1764" y1="480.8047" y2="480.8047"/><ellipse cx="1473" cy="491.8047" fill="#84BE84" rx="3" ry="3" style="stroke:#038048;stroke-width:1.0;"/><text fill="#000000" font-family="sans-serif" font-size="11" lengthAdjust="spacing" textLength="100" x="1482" y="495.0151">valider(): boolean</text><!--MD5=[120d14bd2f0886b043aef4965f514f18]
class ValidationCourriel--><rect codeLine="33" fill="#FEFECE" filter="url(#f6035cggxkntr)" height="73.6094" id="ValidationCourriel" style="stroke:#A80036;stroke-width:1.5;" width="376" x="1800.5" y="428"/><ellipse cx="1931.75" cy="444" fill="#ADD1B2" rx="11" ry="11" style="stroke:#A80036;stroke-width:1.0;"/><path d="M1934.0938,439.6719 C1933.1563,439.2344 1932.5625,439.0938 1931.6875,439.0938 C1929.0625,439.0938 1927.0625,441.1719 1927.0625,443.8906 L1927.0625,445.0156 C1927.0625,447.5938 1929.1719,449.4844 1932.0625,449.4844 C1933.2813,449.4844 1934.4375,449.1875 1935.1875,448.6406 C1935.7656,448.2344 1936.0938,447.7813 1936.0938,447.3906 C1936.0938,446.9375 1935.7031,446.5469 1935.2344,446.5469 C1935.0156,446.5469 1934.8125,446.625 1934.625,446.8125 C1934.1719,447.2969 1934.1719,447.2969 1933.9844,447.3906 C1933.5625,447.6563 1932.875,447.7813 1932.1094,447.7813 C1930.0625,447.7813 1928.7656,446.6875 1928.7656,444.9844 L1928.7656,443.8906 C1928.7656,442.1094 1930.0156,440.7969 1931.75,440.7969 C1932.3281,440.7969 1932.9375,440.9531 1933.4063,441.2031 C1933.8906,441.4844 1934.0625,441.7031 1934.1563,442.1094 C1934.2188,442.5156 1934.25,442.6406 1934.3906,442.7656 C1934.5313,442.9063 1934.7656,443.0156 1934.9844,443.0156 C1935.25,443.0156 1935.5156,442.875 1935.6875,442.6563 C1935.7969,442.5 1935.8281,442.3125 1935.8281,441.8906 L1935.8281,440.4688 C1935.8281,440.0313 1935.8125,439.9063 1935.7188,439.75 C1935.5625,439.4844 1935.2813,439.3438 1934.9844,439.3438 C1934.6875,439.3438 1934.4844,439.4375 1934.2656,439.75 L1934.0938,439.6719 Z " fill="#000000"/><text fill="#000000" font-family="sans-serif" font-size="12" lengthAdjust="spacing" textLength="105" x="1952.25" y="448.1543">ValidationCourriel</text><line style="stroke:#A80036;stroke-width:1.5;" x1="1801.5" x2="2175.5" y1="460" y2="460"/><rect fill="none" height="6" style="stroke:#C82930;stroke-width:1.0;" width="6" x="1808.5" y="468"/><text fill="#000000" font-family="sans-serif" font-size="11" lengthAdjust="spacing" textLength="350" x="1820.5" y="474.2104">validationCourrielConfirmation: ValidationCourrielConfirmation</text><line style="stroke:#A80036;stroke-width:1.5;" x1="1801.5" x2="2175.5" y1="480.8047" y2="480.8047"/><ellipse cx="1811.5" cy="491.8047" fill="#84BE84" rx="3" ry="3" style="stroke:#038048;stroke-width:1.0;"/><text fill="#000000" font-family="sans-serif" font-size="11" lengthAdjust="spacing" textLength="100" x="1820.5" y="495.0151">valider(): boolean</text><!--MD5=[d8db3ce43956874b721229355a2e5c09]
class ValidationDateNaissance--><rect codeLine="37" fill="#FEFECE" filter="url(#f6035cggxkntr)" height="86.4141" id="ValidationDateNaissance" style="stroke:#A80036;stroke-width:1.5;" width="333" x="2212" y="422"/><ellipse cx="2300.75" cy="438" fill="#ADD1B2" rx="11" ry="11" style="stroke:#A80036;stroke-width:1.0;"/><path d="M2303.0938,433.6719 C2302.1563,433.2344 2301.5625,433.0938 2300.6875,433.0938 C2298.0625,433.0938 2296.0625,435.1719 2296.0625,437.8906 L2296.0625,439.0156 C2296.0625,441.5938 2298.1719,443.4844 2301.0625,443.4844 C2302.2813,443.4844 2303.4375,443.1875 2304.1875,442.6406 C2304.7656,442.2344 2305.0938,441.7813 2305.0938,441.3906 C2305.0938,440.9375 2304.7031,440.5469 2304.2344,440.5469 C2304.0156,440.5469 2303.8125,440.625 2303.625,440.8125 C2303.1719,441.2969 2303.1719,441.2969 2302.9844,441.3906 C2302.5625,441.6563 2301.875,441.7813 2301.1094,441.7813 C2299.0625,441.7813 2297.7656,440.6875 2297.7656,438.9844 L2297.7656,437.8906 C2297.7656,436.1094 2299.0156,434.7969 2300.75,434.7969 C2301.3281,434.7969 2301.9375,434.9531 2302.4063,435.2031 C2302.8906,435.4844 2303.0625,435.7031 2303.1563,436.1094 C2303.2188,436.5156 2303.25,436.6406 2303.3906,436.7656 C2303.5313,436.9063 2303.7656,437.0156 2303.9844,437.0156 C2304.25,437.0156 2304.5156,436.875 2304.6875,436.6563 C2304.7969,436.5 2304.8281,436.3125 2304.8281,435.8906 L2304.8281,434.4688 C2304.8281,434.0313 2304.8125,433.9063 2304.7188,433.75 C2304.5625,433.4844 2304.2813,433.3438 2303.9844,433.3438 C2303.6875,433.3438 2303.4844,433.4375 2303.2656,433.75 L2303.0938,433.6719 Z " fill="#000000"/><text fill="#000000" font-family="sans-serif" font-size="12" lengthAdjust="spacing" textLength="147" x="2321.25" y="442.1543">ValidationDateNaissance</text><line style="stroke:#A80036;stroke-width:1.5;" x1="2213" x2="2544" y1="454" y2="454"/><line style="stroke:#A80036;stroke-width:1.5;" x1="2213" x2="2544" y1="462" y2="462"/><ellipse cx="2223" cy="473" fill="#84BE84" rx="3" ry="3" style="stroke:#038048;stroke-width:1.0;"/><text fill="#000000" font-family="sans-serif" font-size="11" lengthAdjust="spacing" textLength="100" x="2232" y="476.2104">valider(): boolean</text><rect fill="#F24D5C" height="6" style="stroke:#C82930;stroke-width:1.0;" width="6" x="2220" y="482.8047"/><text fill="#000000" font-family="sans-serif" font-size="11" lengthAdjust="spacing" textLength="307" x="2232" y="489.0151">obtenirDateNaissanceMinimumPourEtreAdulte(): string</text><rect fill="#F24D5C" height="6" style="stroke:#C82930;stroke-width:1.0;" width="6" x="2220" y="495.6094"/><text fill="#000000" font-family="sans-serif" font-size="11" lengthAdjust="spacing" textLength="253" x="2232" y="501.8198">estUnAdulte(dateNaissance: string): boolean</text><!--MD5=[0edd5a546923766add0f41735e0468c0]
class ValidationMotPasse--><rect codeLine="42" fill="#FEFECE" filter="url(#f6035cggxkntr)" height="48" id="ValidationMotPasse" style="stroke:#A80036;stroke-width:1.5;" width="147" x="2580" y="441"/><ellipse cx="2595" cy="457" fill="#ADD1B2" rx="11" ry="11" style="stroke:#A80036;stroke-width:1.0;"/><path d="M2597.3438,452.6719 C2596.4063,452.2344 2595.8125,452.0938 2594.9375,452.0938 C2592.3125,452.0938 2590.3125,454.1719 2590.3125,456.8906 L2590.3125,458.0156 C2590.3125,460.5938 2592.4219,462.4844 2595.3125,462.4844 C2596.5313,462.4844 2597.6875,462.1875 2598.4375,461.6406 C2599.0156,461.2344 2599.3438,460.7813 2599.3438,460.3906 C2599.3438,459.9375 2598.9531,459.5469 2598.4844,459.5469 C2598.2656,459.5469 2598.0625,459.625 2597.875,459.8125 C2597.4219,460.2969 2597.4219,460.2969 2597.2344,460.3906 C2596.8125,460.6563 2596.125,460.7813 2595.3594,460.7813 C2593.3125,460.7813 2592.0156,459.6875 2592.0156,457.9844 L2592.0156,456.8906 C2592.0156,455.1094 2593.2656,453.7969 2595,453.7969 C2595.5781,453.7969 2596.1875,453.9531 2596.6563,454.2031 C2597.1406,454.4844 2597.3125,454.7031 2597.4063,455.1094 C2597.4688,455.5156 2597.5,455.6406 2597.6406,455.7656 C2597.7813,455.9063 2598.0156,456.0156 2598.2344,456.0156 C2598.5,456.0156 2598.7656,455.875 2598.9375,455.6563 C2599.0469,455.5 2599.0781,455.3125 2599.0781,454.8906 L2599.0781,453.4688 C2599.0781,453.0313 2599.0625,452.9063 2598.9688,452.75 C2598.8125,452.4844 2598.5313,452.3438 2598.2344,452.3438 C2597.9375,452.3438 2597.7344,452.4375 2597.5156,452.75 L2597.3438,452.6719 Z " fill="#000000"/><text fill="#000000" font-family="sans-serif" font-size="12" lengthAdjust="spacing" textLength="115" x="2609" y="461.1543">ValidationMotPasse</text><line style="stroke:#A80036;stroke-width:1.5;" x1="2581" x2="2726" y1="473" y2="473"/><line style="stroke:#A80036;stroke-width:1.5;" x1="2581" x2="2726" y1="481" y2="481"/><!--MD5=[57518a57a9e90f1685b46262b8da370e]
class NomEtape--><rect codeLine="43" fill="#FEFECE" filter="url(#f6035cggxkntr)" height="86.4141" id="NomEtape" style="stroke:#A80036;stroke-width:1.5;" width="137" x="311" y="103"/><ellipse cx="345.8" cy="119" fill="#EB937F" rx="11" ry="11" style="stroke:#A80036;stroke-width:1.0;"/><path d="M344.5969,119.875 L346.05,119.875 L346.05,119.9844 C346.05,120.3906 346.0813,120.5469 346.1594,120.7031 C346.3156,120.9531 346.5969,121.1094 346.8938,121.1094 C347.1438,121.1094 347.4094,120.9688 347.5656,120.75 C347.6906,120.5938 347.7219,120.4375 347.7219,119.9844 L347.7219,118.0625 C347.7219,117.9063 347.7219,117.8594 347.7063,117.7031 C347.6438,117.2344 347.3313,116.9219 346.8781,116.9219 C346.6281,116.9219 346.3625,117.0625 346.1906,117.2813 C346.0813,117.4531 346.05,117.6094 346.05,118.0625 L346.05,118.1875 L344.5969,118.1875 L344.5969,115.7813 L348.5813,115.7813 L348.5813,116.6406 C348.5813,117.0469 348.6125,117.2188 348.6906,117.375 C348.8625,117.625 349.1438,117.7813 349.425,117.7813 C349.6906,117.7813 349.9563,117.6406 350.1281,117.4219 C350.2375,117.25 350.2688,117.1094 350.2688,116.6406 L350.2688,114.0938 L342.6438,114.0938 C342.2063,114.0938 342.0813,114.1094 341.925,114.2031 C341.675,114.3594 341.5188,114.6563 341.5188,114.9375 C341.5188,115.2188 341.6594,115.4688 341.8781,115.6406 C342.0344,115.75 342.2219,115.7813 342.6438,115.7813 L342.8938,115.7813 L342.8938,122.2969 L342.6438,122.2969 C342.2375,122.2969 342.0813,122.3125 341.925,122.4219 C341.675,122.5938 341.5188,122.8594 341.5188,123.1563 C341.5188,123.4219 341.6594,123.6719 341.8781,123.8281 C342.0188,123.9531 342.2531,124 342.6438,124 L350.6438,124 L350.6438,121.4219 C350.6438,120.9844 350.6125,120.8438 350.5344,120.6875 C350.3625,120.4375 350.0813,120.2813 349.8,120.2813 C349.5344,120.2813 349.2688,120.3906 349.0969,120.6406 C348.9875,120.7969 348.9563,120.9375 348.9563,121.4219 L348.9563,122.2969 L344.5969,122.2969 L344.5969,119.875 Z " fill="#000000"/><text fill="#000000" font-family="sans-serif" font-size="12" lengthAdjust="spacing" textLength="61" x="364.2" y="123.1543">NomEtape</text><line style="stroke:#A80036;stroke-width:1.5;" x1="312" x2="447" y1="135" y2="135"/><text fill="#000000" font-family="sans-serif" font-size="11" lengthAdjust="spacing" textLength="73" x="317" y="149.2104">Identification</text><text fill="#000000" font-family="sans-serif" font-size="11" lengthAdjust="spacing" textLength="125" x="317" y="162.0151">InformationConnexion</text><text fill="#000000" font-family="sans-serif" font-size="11" lengthAdjust="spacing" textLength="72" x="317" y="174.8198">Confirmation</text><line style="stroke:#A80036;stroke-width:1.5;" x1="312" x2="447" y1="181.4141" y2="181.4141"/><!--MD5=[1930615c024d8a0739b0528a589955b6]
class EtapesProgression--><rect codeLine="48" fill="#FEFECE" filter="url(#f6035cggxkntr)" height="48" id="EtapesProgression" style="stroke:#A80036;stroke-width:1.5;" width="142" x="483.5" y="122"/><ellipse cx="498.5" cy="138" fill="#B4A7E5" rx="11" ry="11" style="stroke:#A80036;stroke-width:1.0;"/><path d="M499.4531,134.7813 L501.1719,134.7813 C501.5625,134.7813 501.75,134.75 501.875,134.6719 C502.1406,134.5156 502.2813,134.2344 502.2813,133.9375 C502.2813,133.6719 502.1719,133.4063 501.9375,133.2344 C501.7656,133.125 501.625,133.0938 501.1719,133.0938 L496.0313,133.0938 C495.5938,133.0938 495.4688,133.1094 495.3125,133.2031 C495.0625,133.3594 494.9063,133.6563 494.9063,133.9375 C494.9063,134.2188 495.0469,134.4688 495.2656,134.6406 C495.4219,134.75 495.6094,134.7813 496.0313,134.7813 L497.75,134.7813 L497.75,141.2969 L496.0313,141.2969 C495.5938,141.2969 495.4688,141.3125 495.3125,141.4219 C495.0625,141.5781 494.9063,141.8594 494.9063,142.1563 C494.9063,142.4063 495.0469,142.6719 495.2656,142.8281 C495.4219,142.9531 495.625,143 496.0313,143 L501.1719,143 C501.9219,143 502.2813,142.7188 502.2813,142.1563 C502.2813,141.875 502.1719,141.625 501.9375,141.4531 C501.7656,141.3281 501.625,141.2969 501.1719,141.2969 L499.4531,141.2969 L499.4531,134.7813 Z " fill="#000000"/><text fill="#000000" font-family="sans-serif" font-size="12" font-style="italic" lengthAdjust="spacing" textLength="110" x="512.5" y="142.1543">EtapesProgression</text><line style="stroke:#A80036;stroke-width:1.5;" x1="484.5" x2="624.5" y1="154" y2="154"/><line style="stroke:#A80036;stroke-width:1.5;" x1="484.5" x2="624.5" y1="162" y2="162"/><!--MD5=[f3f64326ad5f9778a606f310f2ecd1a9]
class EtatEtape--><rect codeLine="49" fill="#FEFECE" filter="url(#f6035cggxkntr)" height="86.4141" id="EtatEtape" style="stroke:#A80036;stroke-width:1.5;" width="88" x="168.5" y="422"/><ellipse cx="183.5" cy="438" fill="#EB937F" rx="11" ry="11" style="stroke:#A80036;stroke-width:1.0;"/><path d="M182.2969,438.875 L183.75,438.875 L183.75,438.9844 C183.75,439.3906 183.7813,439.5469 183.8594,439.7031 C184.0156,439.9531 184.2969,440.1094 184.5938,440.1094 C184.8438,440.1094 185.1094,439.9688 185.2656,439.75 C185.3906,439.5938 185.4219,439.4375 185.4219,438.9844 L185.4219,437.0625 C185.4219,436.9063 185.4219,436.8594 185.4063,436.7031 C185.3438,436.2344 185.0313,435.9219 184.5781,435.9219 C184.3281,435.9219 184.0625,436.0625 183.8906,436.2813 C183.7813,436.4531 183.75,436.6094 183.75,437.0625 L183.75,437.1875 L182.2969,437.1875 L182.2969,434.7813 L186.2813,434.7813 L186.2813,435.6406 C186.2813,436.0469 186.3125,436.2188 186.3906,436.375 C186.5625,436.625 186.8438,436.7813 187.125,436.7813 C187.3906,436.7813 187.6563,436.6406 187.8281,436.4219 C187.9375,436.25 187.9688,436.1094 187.9688,435.6406 L187.9688,433.0938 L180.3438,433.0938 C179.9063,433.0938 179.7813,433.1094 179.625,433.2031 C179.375,433.3594 179.2188,433.6563 179.2188,433.9375 C179.2188,434.2188 179.3594,434.4688 179.5781,434.6406 C179.7344,434.75 179.9219,434.7813 180.3438,434.7813 L180.5938,434.7813 L180.5938,441.2969 L180.3438,441.2969 C179.9375,441.2969 179.7813,441.3125 179.625,441.4219 C179.375,441.5938 179.2188,441.8594 179.2188,442.1563 C179.2188,442.4219 179.3594,442.6719 179.5781,442.8281 C179.7188,442.9531 179.9531,443 180.3438,443 L188.3438,443 L188.3438,440.4219 C188.3438,439.9844 188.3125,439.8438 188.2344,439.6875 C188.0625,439.4375 187.7813,439.2813 187.5,439.2813 C187.2344,439.2813 186.9688,439.3906 186.7969,439.6406 C186.6875,439.7969 186.6563,439.9375 186.6563,440.4219 L186.6563,441.2969 L182.2969,441.2969 L182.2969,438.875 Z " fill="#000000"/><text fill="#000000" font-family="sans-serif" font-size="12" lengthAdjust="spacing" textLength="56" x="197.5" y="442.1543">EtatEtape</text><line style="stroke:#A80036;stroke-width:1.5;" x1="169.5" x2="255.5" y1="454" y2="454"/><text fill="#000000" font-family="sans-serif" font-size="11" lengthAdjust="spacing" textLength="48" x="174.5" y="468.2104">Complet</text><text fill="#000000" font-family="sans-serif" font-size="11" lengthAdjust="spacing" textLength="44" x="174.5" y="481.0151">Courant</text><text fill="#000000" font-family="sans-serif" font-size="11" lengthAdjust="spacing" textLength="58" x="174.5" y="493.8198">Desactive</text><line style="stroke:#A80036;stroke-width:1.5;" x1="169.5" x2="255.5" y1="500.4141" y2="500.4141"/><!--MD5=[58bcc660af51f6e079bd1e538d3354a9]
class BarreProgression--><rect codeLine="54" fill="#FEFECE" filter="url(#f6035cggxkntr)" height="240.0703" id="BarreProgression" style="stroke:#A80036;stroke-width:1.5;" width="745" x="292" y="345"/><ellipse cx="607.75" cy="361" fill="#ADD1B2" rx="11" ry="11" style="stroke:#A80036;stroke-width:1.0;"/><path d="M610.0938,356.6719 C609.1563,356.2344 608.5625,356.0938 607.6875,356.0938 C605.0625,356.0938 603.0625,358.1719 603.0625,360.8906 L603.0625,362.0156 C603.0625,364.5938 605.1719,366.4844 608.0625,366.4844 C609.2813,366.4844 610.4375,366.1875 611.1875,365.6406 C611.7656,365.2344 612.0938,364.7813 612.0938,364.3906 C612.0938,363.9375 611.7031,363.5469 611.2344,363.5469 C611.0156,363.5469 610.8125,363.625 610.625,363.8125 C610.1719,364.2969 610.1719,364.2969 609.9844,364.3906 C609.5625,364.6563 608.875,364.7813 608.1094,364.7813 C606.0625,364.7813 604.7656,363.6875 604.7656,361.9844 L604.7656,360.8906 C604.7656,359.1094 606.0156,357.7969 607.75,357.7969 C608.3281,357.7969 608.9375,357.9531 609.4063,358.2031 C609.8906,358.4844 610.0625,358.7031 610.1563,359.1094 C610.2188,359.5156 610.25,359.6406 610.3906,359.7656 C610.5313,359.9063 610.7656,360.0156 610.9844,360.0156 C611.25,360.0156 611.5156,359.875 611.6875,359.6563 C611.7969,359.5 611.8281,359.3125 611.8281,358.8906 L611.8281,357.4688 C611.8281,357.0313 611.8125,356.9063 611.7188,356.75 C611.5625,356.4844 611.2813,356.3438 610.9844,356.3438 C610.6875,356.3438 610.4844,356.4375 610.2656,356.75 L610.0938,356.6719 Z " fill="#000000"/><text fill="#000000" font-family="sans-serif" font-size="12" lengthAdjust="spacing" textLength="105" x="628.25" y="365.1543">BarreProgression</text><line style="stroke:#A80036;stroke-width:1.5;" x1="293" x2="1036" y1="377" y2="377"/><ellipse cx="303" cy="388" rx="3" ry="3" style="stroke:#038048;stroke-width:1.0;fill:none;"/><text fill="#000000" font-family="sans-serif" font-size="11" lengthAdjust="spacing" textLength="176" x="312" y="391.2104">nomEtapeCourante: NomEtape</text><ellipse cx="303" cy="400.8047" rx="3" ry="3" style="stroke:#038048;stroke-width:1.0;fill:none;"/><text fill="#000000" font-family="sans-serif" font-size="11" lengthAdjust="spacing" textLength="167" x="312" y="404.0151">refRacine: HTMLOListElement</text><rect fill="none" height="6" style="stroke:#C82930;stroke-width:1.0;" width="6" x="300" y="410.6094"/><text fill="#000000" font-family="sans-serif" font-size="11" lengthAdjust="spacing" textLength="216" x="312" y="416.8198">etapesProgression: EtapesProgression</text><rect fill="none" height="6" style="stroke:#C82930;stroke-width:1.0;" width="6" x="300" y="423.4141"/><text fill="#000000" font-family="sans-serif" font-size="11" lengthAdjust="spacing" textLength="410" x="312" y="429.6245">eventNaviguerEtapeSelectionnee: EventListenerOrEventListenerObject</text><rect fill="none" height="6" style="stroke:#C82930;stroke-width:1.0;" width="6" x="300" y="436.2188"/><text fill="#000000" font-family="sans-serif" font-size="11" lengthAdjust="spacing" textLength="450" x="312" y="442.4292">eventNaviguerClavierEtapeSelectionnee: EventListenerOrEventListenerObject</text><line style="stroke:#A80036;stroke-width:1.5;" x1="293" x2="1036" y1="449.0234" y2="449.0234"/><ellipse cx="303" cy="460.0234" fill="#84BE84" rx="3" ry="3" style="stroke:#038048;stroke-width:1.0;"/><text fill="#000000" font-family="sans-serif" font-size="11" lengthAdjust="spacing" textLength="347" x="312" y="463.2339">modifierEtapeCourante(nomEtapeCourante: NomEtape): void</text><rect fill="#F24D5C" height="6" style="stroke:#C82930;stroke-width:1.0;" width="6" x="300" y="469.8281"/><text fill="#000000" font-family="sans-serif" font-size="11" lengthAdjust="spacing" textLength="237" x="312" y="476.0386">creerRacineElement(): HTMLOListElement</text><rect fill="#F24D5C" height="6" style="stroke:#C82930;stroke-width:1.0;" width="6" x="300" y="482.6328"/><text fill="#000000" font-family="sans-serif" font-size="11" lengthAdjust="spacing" textLength="136" x="312" y="488.8433">definirEtatEtapes(): void</text><rect fill="#F24D5C" height="6" style="stroke:#C82930;stroke-width:1.0;" width="6" x="300" y="495.4375"/><text fill="#000000" font-family="sans-serif" font-size="11" lengthAdjust="spacing" textLength="178" x="312" y="501.6479">redessinerHTMLElement(): void</text><rect fill="#F24D5C" height="6" style="stroke:#C82930;stroke-width:1.0;" width="6" x="300" y="508.2422"/><text fill="#000000" font-family="sans-serif" font-size="11" lengthAdjust="spacing" textLength="423" x="312" y="514.4526">ajouterEcouteursEvenementsEtape(refEtiquette: HTMLSpanElement): void</text><rect fill="#F24D5C" height="6" style="stroke:#C82930;stroke-width:1.0;" width="6" x="300" y="521.0469"/><text fill="#000000" font-family="sans-serif" font-size="11" lengthAdjust="spacing" textLength="418" x="312" y="527.2573">retirerEcouteursEvenementsEtape(refEtiquette: HTMLSpanElement): void</text><rect fill="#F24D5C" height="6" style="stroke:#C82930;stroke-width:1.0;" width="6" x="300" y="533.8516"/><text fill="#000000" font-family="sans-serif" font-size="11" lengthAdjust="spacing" textLength="273" x="312" y="540.062">naviguerEtapeSelectionnee(event: Event): void</text><rect fill="#F24D5C" height="6" style="stroke:#C82930;stroke-width:1.0;" width="6" x="300" y="546.6563"/><text fill="#000000" font-family="sans-serif" font-size="11" lengthAdjust="spacing" textLength="367" x="312" y="552.8667">naviguerClavierEtapeSelectionnee(event: KeyboardEvent): void</text><rect fill="#F24D5C" height="6" style="stroke:#C82930;stroke-width:1.0;" width="6" x="300" y="559.4609"/><text fill="#000000" font-family="sans-serif" font-size="11" lengthAdjust="spacing" textLength="719" x="312" y="565.6714">definirClassesEtAttributsEtape(etatEtapeCourante: EtatEtape, refEtape: HTMLLIElement, refEtiquette: HTMLSpanElement): void</text><rect fill="#F24D5C" height="6" style="stroke:#C82930;stroke-width:1.0;" width="6" x="300" y="572.2656"/><text fill="#000000" font-family="sans-serif" font-size="11" lengthAdjust="spacing" textLength="569" x="312" y="578.4761">reinitialiserClassesEtAttributsEtape(refEtape: HTMLLIElement, refEtiquette: HTMLSpanElement): void</text><!--MD5=[558938d639ff8abcc7f72c77f46ae38d]
class ControlesFormulaire--><rect codeLine="71" fill="#FEFECE" filter="url(#f6035cggxkntr)" height="48" id="ControlesFormulaire" style="stroke:#A80036;stroke-width:1.5;" width="152" x="1072.5" y="441"/><ellipse cx="1087.5" cy="457" fill="#B4A7E5" rx="11" ry="11" style="stroke:#A80036;stroke-width:1.0;"/><path d="M1088.4531,453.7813 L1090.1719,453.7813 C1090.5625,453.7813 1090.75,453.75 1090.875,453.6719 C1091.1406,453.5156 1091.2813,453.2344 1091.2813,452.9375 C1091.2813,452.6719 1091.1719,452.4063 1090.9375,452.2344 C1090.7656,452.125 1090.625,452.0938 1090.1719,452.0938 L1085.0313,452.0938 C1084.5938,452.0938 1084.4688,452.1094 1084.3125,452.2031 C1084.0625,452.3594 1083.9063,452.6563 1083.9063,452.9375 C1083.9063,453.2188 1084.0469,453.4688 1084.2656,453.6406 C1084.4219,453.75 1084.6094,453.7813 1085.0313,453.7813 L1086.75,453.7813 L1086.75,460.2969 L1085.0313,460.2969 C1084.5938,460.2969 1084.4688,460.3125 1084.3125,460.4219 C1084.0625,460.5781 1083.9063,460.8594 1083.9063,461.1563 C1083.9063,461.4063 1084.0469,461.6719 1084.2656,461.8281 C1084.4219,461.9531 1084.625,462 1085.0313,462 L1090.1719,462 C1090.9219,462 1091.2813,461.7188 1091.2813,461.1563 C1091.2813,460.875 1091.1719,460.625 1090.9375,460.4531 C1090.7656,460.3281 1090.625,460.2969 1090.1719,460.2969 L1088.4531,460.2969 L1088.4531,453.7813 Z " fill="#000000"/><text fill="#000000" font-family="sans-serif" font-size="12" font-style="italic" lengthAdjust="spacing" textLength="120" x="1101.5" y="461.1543">ControlesFormulaire</text><line style="stroke:#A80036;stroke-width:1.5;" x1="1073.5" x2="1223.5" y1="473" y2="473"/><line style="stroke:#A80036;stroke-width:1.5;" x1="1073.5" x2="1223.5" y1="481" y2="481"/><!--MD5=[157279da30a78fb40f61bda61f407486]
class Formulaire--><rect codeLine="72" fill="#FEFECE" filter="url(#f6035cggxkntr)" height="240.0703" id="Formulaire" style="stroke:#A80036;stroke-width:1.5;" width="411" x="7" y="645"/><ellipse cx="176.25" cy="661" fill="#ADD1B2" rx="11" ry="11" style="stroke:#A80036;stroke-width:1.0;"/><path d="M178.5938,656.6719 C177.6563,656.2344 177.0625,656.0938 176.1875,656.0938 C173.5625,656.0938 171.5625,658.1719 171.5625,660.8906 L171.5625,662.0156 C171.5625,664.5938 173.6719,666.4844 176.5625,666.4844 C177.7813,666.4844 178.9375,666.1875 179.6875,665.6406 C180.2656,665.2344 180.5938,664.7813 180.5938,664.3906 C180.5938,663.9375 180.2031,663.5469 179.7344,663.5469 C179.5156,663.5469 179.3125,663.625 179.125,663.8125 C178.6719,664.2969 178.6719,664.2969 178.4844,664.3906 C178.0625,664.6563 177.375,664.7813 176.6094,664.7813 C174.5625,664.7813 173.2656,663.6875 173.2656,661.9844 L173.2656,660.8906 C173.2656,659.1094 174.5156,657.7969 176.25,657.7969 C176.8281,657.7969 177.4375,657.9531 177.9063,658.2031 C178.3906,658.4844 178.5625,658.7031 178.6563,659.1094 C178.7188,659.5156 178.75,659.6406 178.8906,659.7656 C179.0313,659.9063 179.2656,660.0156 179.4844,660.0156 C179.75,660.0156 180.0156,659.875 180.1875,659.6563 C180.2969,659.5 180.3281,659.3125 180.3281,658.8906 L180.3281,657.4688 C180.3281,657.0313 180.3125,656.9063 180.2188,656.75 C180.0625,656.4844 179.7813,656.3438 179.4844,656.3438 C179.1875,656.3438 178.9844,656.4375 178.7656,656.75 L178.5938,656.6719 Z " fill="#000000"/><text fill="#000000" font-family="sans-serif" font-size="12" lengthAdjust="spacing" textLength="64" x="196.75" y="665.1543">Formulaire</text><line style="stroke:#A80036;stroke-width:1.5;" x1="8" x2="417" y1="677" y2="677"/><rect fill="none" height="6" style="stroke:#C82930;stroke-width:1.0;" width="6" x="15" y="685"/><text fill="#000000" font-family="sans-serif" font-size="11" lengthAdjust="spacing" textLength="139" x="27" y="691.2104">refRacine: HTMLElement</text><rect fill="none" height="6" style="stroke:#C82930;stroke-width:1.0;" width="6" x="15" y="697.8047"/><text fill="#000000" font-family="sans-serif" font-size="11" lengthAdjust="spacing" textLength="189" x="27" y="704.0151">refFormulaire: HTMLFormElement</text><rect fill="none" height="6" style="stroke:#C82930;stroke-width:1.0;" width="6" x="15" y="710.6094"/><text fill="#000000" font-family="sans-serif" font-size="11" lengthAdjust="spacing" textLength="232" x="27" y="716.8198">refMessageErreurGeneral: HTMLElement</text><rect fill="none" height="6" style="stroke:#C82930;stroke-width:1.0;" width="6" x="15" y="723.4141"/><text fill="#000000" font-family="sans-serif" font-size="11" lengthAdjust="spacing" textLength="218" x="27" y="729.6245">refBoutonSubmit: HTMLButtonElement</text><rect fill="none" height="6" style="stroke:#C82930;stroke-width:1.0;" width="6" x="15" y="736.2188"/><text fill="#000000" font-family="sans-serif" font-size="11" lengthAdjust="spacing" textLength="211" x="27" y="742.4292">refBoutonReset: HTMLButtonElement</text><rect fill="none" height="6" style="stroke:#C82930;stroke-width:1.0;" width="6" x="15" y="749.0234"/><text fill="#000000" font-family="sans-serif" font-size="11" lengthAdjust="spacing" textLength="198" x="27" y="755.2339">barreProgression: BarreProgression</text><rect fill="none" height="6" style="stroke:#C82930;stroke-width:1.0;" width="6" x="15" y="761.8281"/><text fill="#000000" font-family="sans-serif" font-size="11" lengthAdjust="spacing" textLength="173" x="27" y="768.0386">controles: ControlesFormulaire</text><rect fill="none" height="6" style="stroke:#C82930;stroke-width:1.0;" width="6" x="15" y="774.6328"/><text fill="#000000" font-family="sans-serif" font-size="11" lengthAdjust="spacing" textLength="199" x="27" y="780.8433">controlesEnErreur: ValidationInput[]</text><line style="stroke:#A80036;stroke-width:1.5;" x1="8" x2="417" y1="787.4375" y2="787.4375"/><rect fill="#F24D5C" height="6" style="stroke:#C82930;stroke-width:1.0;" width="6" x="15" y="795.4375"/><text fill="#000000" font-family="sans-serif" font-size="11" lengthAdjust="spacing" textLength="213" x="27" y="801.6479">creerControles(): ControlesFormulaire</text><ellipse cx="18" cy="811.2422" fill="#84BE84" rx="3" ry="3" style="stroke:#038048;stroke-width:1.0;"/><text fill="#000000" font-family="sans-serif" font-size="11" lengthAdjust="spacing" textLength="385" x="27" y="814.4526">afficherEtapeCourante(focusSurEtapeCouranteActif?: boolean): void</text><rect fill="#F24D5C" height="6" style="stroke:#C82930;stroke-width:1.0;" width="6" x="15" y="821.0469"/><text fill="#000000" font-family="sans-serif" font-size="11" lengthAdjust="spacing" textLength="173" x="27" y="827.2573">naviguerEtapeSuivante(): void</text><rect fill="#F24D5C" height="6" style="stroke:#C82930;stroke-width:1.0;" width="6" x="15" y="833.8516"/><text fill="#000000" font-family="sans-serif" font-size="11" lengthAdjust="spacing" textLength="192" x="27" y="840.062">valider(event: SubmitEvent): void</text><rect fill="#F24D5C" height="6" style="stroke:#C82930;stroke-width:1.0;" width="6" x="15" y="846.6563"/><text fill="#000000" font-family="sans-serif" font-size="11" lengthAdjust="spacing" textLength="102" x="27" y="852.8667">reinitialiser(): void</text><rect fill="#F24D5C" height="6" style="stroke:#C82930;stroke-width:1.0;" width="6" x="15" y="859.4609"/><text fill="#000000" font-family="sans-serif" font-size="11" lengthAdjust="spacing" textLength="213" x="27" y="865.6714">afficherMessageErreurGeneral(): void</text><rect fill="#F24D5C" height="6" style="stroke:#C82930;stroke-width:1.0;" width="6" x="15" y="872.2656"/><text fill="#000000" font-family="sans-serif" font-size="11" lengthAdjust="spacing" textLength="205" x="27" y="878.4761">retirerMessageErreurGeneral(): void</text><!--MD5=[7caec24e348271b08d36f5a183216059]
reverse link ValidationInput to ValidationPseudonyme--><path d="M1757.66,202.128 C1655.78,233.484 1538.17,279.8 1444.5,345 C1412.7,367.137 1384.91,401.674 1366.57,427.85 " fill="none" id="ValidationInput-backto-ValidationPseudonyme" style="stroke:#A80036;stroke-width:1.0;"/><polygon fill="none" points="1755.65,195.422,1776.82,196.348,1759.7,208.826,1755.65,195.422" style="stroke:#A80036;stroke-width:1.0;"/><!--MD5=[f43093724cfb6e58d68bf2d3d3ead4c7]
reverse link ValidationInput to ValidationCourrielConfirmation--><path d="M1809.8,298.059 C1752.54,346.462 1694.19,395.791 1656.16,427.94 " fill="none" id="ValidationInput-backto-ValidationCourrielConfirmation" style="stroke:#A80036;stroke-width:1.0;"/><polygon fill="none" points="1805.32,292.684,1825.11,285.119,1814.36,303.376,1805.32,292.684" style="stroke:#A80036;stroke-width:1.0;"/><!--MD5=[557aa14bfbbb5a27eec960c2a8b95681]
reverse link ValidationInput to ValidationCourriel--><path d="M1988.5,305.17 C1988.5,351.249 1988.5,397.365 1988.5,427.94 " fill="none" id="ValidationInput-backto-ValidationCourriel" style="stroke:#A80036;stroke-width:1.0;"/><polygon fill="none" points="1981.5,305.119,1988.5,285.119,1995.5,305.119,1981.5,305.119" style="stroke:#A80036;stroke-width:1.0;"/><!--MD5=[a95c3a7d2f40d0fae3725127ef3c956a]
reverse link ValidationInput to ValidationDateNaissance--><path d="M2174.15,297.898 C2230.04,343.33 2286.96,389.596 2326.48,421.72 " fill="none" id="ValidationInput-backto-ValidationDateNaissance" style="stroke:#A80036;stroke-width:1.0;"/><polygon fill="none" points="2169.53,303.165,2158.43,285.119,2178.36,292.302,2169.53,303.165" style="stroke:#A80036;stroke-width:1.0;"/><!--MD5=[4afbf66953d7e5ed358165a5037aff18]
reverse link ValidationInput to ValidationMotPasse--><path d="M2219.68,193.73 C2330.66,224.044 2461.19,271.897 2562.5,345 C2597.93,370.567 2626.05,413.826 2641.19,440.546 " fill="none" id="ValidationInput-backto-ValidationMotPasse" style="stroke:#A80036;stroke-width:1.0;"/><polygon fill="none" points="2217.79,200.47,2200.27,188.551,2221.4,186.944,2217.79,200.47" style="stroke:#A80036;stroke-width:1.0;"/><!--MD5=[4f54d9f683da76190a6ba1e34fd06e26]
link MessagesErreur to NomEtape--><!--MD5=[4b81e3494d84e75da25eb925dac057a2]
link NomEtape to EtapesProgression--><!--MD5=[5db773730e092ab91e35e788064a68bc]
link MessagesErreur to EtatEtape--><!--MD5=[e48e8183a74d53406427d248bd9f8ed0]
link EtatEtape to BarreProgression--><!--MD5=[90b90c0dbd0d8d0a003cb59de64a4a96]
link BarreProgression to ControlesFormulaire--><!--MD5=[cb931c3538d28b889bfefa1a3a3efdb9]
link EtatEtape to Formulaire--><!--MD5=[0e9d0ebb6470069ea8be2b8aa31b7c1a]
@startuml
interface MessagesErreur {
    +requis?: string
    +pattern?: string
}
class ValidationInput {
    +nomEtiquette: string
    +refChamp: HTMLElement
    +refInput: HTMLInputElement
    +refErreur: HTMLElement
    +messageErreurCourant: string
    +messagesErreur: MessagesErreur
    #estPretAEtreValide: boolean
    #eventVerifierEstPretAEtreValide: EventListenerOrEventListenerObject
    #eventValider: EventListenerOrEventListenerObject
    +valider(): boolean
    +forcerValidation(): boolean
    +reinitialiser(): void
    #ajouterEcouteursEvenements(): void
    #retirerEcouteursEvenements(): void
    #validerAttributPattern(): boolean
    #afficherMessageErreur(): void
    #retirerMessageErreur(): void
    -verifierEstPretAEtreValide(): void
}
class ValidationPseudonyme extends ValidationInput {
    +idsIndisponibles: string[]
    +valider(): boolean
}
class ValidationCourrielConfirmation extends ValidationInput {
    -inputCourrielCourantElement: HTMLInputElement
    +valider(): boolean
}
class ValidationCourriel extends ValidationInput {
    -validationCourrielConfirmation: ValidationCourrielConfirmation
    +valider(): boolean
}
class ValidationDateNaissance extends ValidationInput {
    +valider(): boolean
    -obtenirDateNaissanceMinimumPourEtreAdulte(): string
    -estUnAdulte(dateNaissance: string): boolean
}
class ValidationMotPasse extends ValidationInput
enum NomEtape {
    Identification
    InformationConnexion
    Confirmation
}
interface EtapesProgression
enum EtatEtape {
    Complet
    Courant
    Desactive
}
class BarreProgression {
    +nomEtapeCourante: NomEtape
    +refRacine: HTMLOListElement
    -etapesProgression: EtapesProgression
    -eventNaviguerEtapeSelectionnee: EventListenerOrEventListenerObject
    -eventNaviguerClavierEtapeSelectionnee: EventListenerOrEventListenerObject
    +modifierEtapeCourante(nomEtapeCourante: NomEtape): void
    -creerRacineElement(): HTMLOListElement
    -definirEtatEtapes(): void
    -redessinerHTMLElement(): void
    -ajouterEcouteursEvenementsEtape(refEtiquette: HTMLSpanElement): void
    -retirerEcouteursEvenementsEtape(refEtiquette: HTMLSpanElement): void
    -naviguerEtapeSelectionnee(event: Event): void
    -naviguerClavierEtapeSelectionnee(event: KeyboardEvent): void
    -definirClassesEtAttributsEtape(etatEtapeCourante: EtatEtape, refEtape: HTMLLIElement, refEtiquette: HTMLSpanElement): void
    -reinitialiserClassesEtAttributsEtape(refEtape: HTMLLIElement, refEtiquette: HTMLSpanElement): void
}
interface ControlesFormulaire
class Formulaire {
    -refRacine: HTMLElement
    -refFormulaire: HTMLFormElement
    -refMessageErreurGeneral: HTMLElement
    -refBoutonSubmit: HTMLButtonElement
    -refBoutonReset: HTMLButtonElement
    -barreProgression: BarreProgression
    -controles: ControlesFormulaire
    -controlesEnErreur: ValidationInput[]
    -creerControles(): ControlesFormulaire
    +afficherEtapeCourante(focusSurEtapeCouranteActif?: boolean): void
    -naviguerEtapeSuivante(): void
    -valider(event: SubmitEvent): void
    -reinitialiser(): void
    -afficherMessageErreurGeneral(): void
    -retirerMessageErreurGeneral(): void
}
@enduml

PlantUML version 1.2021.11beta5(Unknown compile time)
(GPL source distribution)
Java Runtime: Java(TM) SE Runtime Environment
JVM: Java HotSpot(TM) 64-Bit Server VM
Default Encoding: UTF-8
Language: en
Country: US
--></g></svg>