<?xml version="1.0" encoding="UTF-8" standalone="no"?><svg xmlns="http://www.w3.org/2000/svg" xmlns:xlink="http://www.w3.org/1999/xlink" contentScriptType="application/ecmascript" contentStyleType="text/css" height="586px" preserveAspectRatio="none" style="width:914px;height:586px;background:#FFFFFF;" version="1.1" viewBox="0 0 914 586" width="914px" zoomAndPan="magnify"><defs><filter height="300%" id="f1gfr4p1osl41" width="300%" x="-1" y="-1"><feGaussianBlur result="blurOut" stdDeviation="2.0"/><feColorMatrix in="blurOut" result="blurOut2" type="matrix" values="0 0 0 0 0 0 0 0 0 0 0 0 0 0 0 0 0 0 .4 0"/><feOffset dx="4.0" dy="4.0" in="blurOut2" result="blurOut3"/><feBlend in="SourceGraphic" in2="blurOut3" mode="normal"/></filter></defs><g><!--MD5=[6fc32771074c023f4028e9d3868a8b69]
class MessagesErreur--><rect codeLine="1" fill="#FEFECE" filter="url(#f1gfr4p1osl41)" height="73.6094" id="MessagesErreur" style="stroke:#A80036;stroke-width:1.5;" width="127" x="127" y="109"/><ellipse cx="142" cy="125" fill="#B4A7E5" rx="11" ry="11" style="stroke:#A80036;stroke-width:1.0;"/><path d="M142.9531,121.7813 L144.6719,121.7813 C145.0625,121.7813 145.25,121.75 145.375,121.6719 C145.6406,121.5156 145.7813,121.2344 145.7813,120.9375 C145.7813,120.6719 145.6719,120.4063 145.4375,120.2344 C145.2656,120.125 145.125,120.0938 144.6719,120.0938 L139.5313,120.0938 C139.0938,120.0938 138.9688,120.1094 138.8125,120.2031 C138.5625,120.3594 138.4063,120.6563 138.4063,120.9375 C138.4063,121.2188 138.5469,121.4688 138.7656,121.6406 C138.9219,121.75 139.1094,121.7813 139.5313,121.7813 L141.25,121.7813 L141.25,128.2969 L139.5313,128.2969 C139.0938,128.2969 138.9688,128.3125 138.8125,128.4219 C138.5625,128.5781 138.4063,128.8594 138.4063,129.1563 C138.4063,129.4063 138.5469,129.6719 138.7656,129.8281 C138.9219,129.9531 139.125,130 139.5313,130 L144.6719,130 C145.4219,130 145.7813,129.7188 145.7813,129.1563 C145.7813,128.875 145.6719,128.625 145.4375,128.4531 C145.2656,128.3281 145.125,128.2969 144.6719,128.2969 L142.9531,128.2969 L142.9531,121.7813 Z " fill="#000000"/><text fill="#000000" font-family="sans-serif" font-size="12" font-style="italic" lengthAdjust="spacing" textLength="95" x="156" y="129.1543">MessagesErreur</text><line style="stroke:#A80036;stroke-width:1.5;" x1="128" x2="253" y1="141" y2="141"/><ellipse cx="138" cy="152" rx="3" ry="3" style="stroke:#038048;stroke-width:1.0;fill:none;"/><text fill="#000000" font-family="sans-serif" font-size="11" lengthAdjust="spacing" textLength="79" x="147" y="155.2104">requis?: string</text><ellipse cx="138" cy="164.8047" rx="3" ry="3" style="stroke:#038048;stroke-width:1.0;fill:none;"/><text fill="#000000" font-family="sans-serif" font-size="11" lengthAdjust="spacing" textLength="85" x="147" y="168.0151">pattern?: string</text><line style="stroke:#A80036;stroke-width:1.5;" x1="128" x2="253" y1="174.6094" y2="174.6094"/><!--MD5=[188985a6a1117471a3ad131d391d58a8]
class ValidationInput--><rect codeLine="5" fill="#FEFECE" filter="url(#f1gfr4p1osl41)" height="278.4844" id="ValidationInput" style="stroke:#A80036;stroke-width:1.5;" width="423" x="477" y="7"/><ellipse cx="640.75" cy="23" fill="#ADD1B2" rx="11" ry="11" style="stroke:#A80036;stroke-width:1.0;"/><path d="M643.0938,18.6719 C642.1563,18.2344 641.5625,18.0938 640.6875,18.0938 C638.0625,18.0938 636.0625,20.1719 636.0625,22.8906 L636.0625,24.0156 C636.0625,26.5938 638.1719,28.4844 641.0625,28.4844 C642.2813,28.4844 643.4375,28.1875 644.1875,27.6406 C644.7656,27.2344 645.0938,26.7813 645.0938,26.3906 C645.0938,25.9375 644.7031,25.5469 644.2344,25.5469 C644.0156,25.5469 643.8125,25.625 643.625,25.8125 C643.1719,26.2969 643.1719,26.2969 642.9844,26.3906 C642.5625,26.6563 641.875,26.7813 641.1094,26.7813 C639.0625,26.7813 637.7656,25.6875 637.7656,23.9844 L637.7656,22.8906 C637.7656,21.1094 639.0156,19.7969 640.75,19.7969 C641.3281,19.7969 641.9375,19.9531 642.4063,20.2031 C642.8906,20.4844 643.0625,20.7031 643.1563,21.1094 C643.2188,21.5156 643.25,21.6406 643.3906,21.7656 C643.5313,21.9063 643.7656,22.0156 643.9844,22.0156 C644.25,22.0156 644.5156,21.875 644.6875,21.6563 C644.7969,21.5 644.8281,21.3125 644.8281,20.8906 L644.8281,19.4688 C644.8281,19.0313 644.8125,18.9063 644.7188,18.75 C644.5625,18.4844 644.2813,18.3438 643.9844,18.3438 C643.6875,18.3438 643.4844,18.4375 643.2656,18.75 L643.0938,18.6719 Z " fill="#000000"/><text fill="#000000" font-family="sans-serif" font-size="12" lengthAdjust="spacing" textLength="87" x="661.25" y="27.1543">ValidationInput</text><line style="stroke:#A80036;stroke-width:1.5;" x1="478" x2="899" y1="39" y2="39"/><ellipse cx="488" cy="50" rx="3" ry="3" style="stroke:#038048;stroke-width:1.0;fill:none;"/><text fill="#000000" font-family="sans-serif" font-size="11" lengthAdjust="spacing" textLength="115" x="497" y="53.2104">nomEtiquette: string</text><ellipse cx="488" cy="62.8047" rx="3" ry="3" style="stroke:#038048;stroke-width:1.0;fill:none;"/><text fill="#000000" font-family="sans-serif" font-size="11" lengthAdjust="spacing" textLength="141" x="497" y="66.0151">refChamp: HTMLElement</text><ellipse cx="488" cy="75.6094" rx="3" ry="3" style="stroke:#038048;stroke-width:1.0;fill:none;"/><text fill="#000000" font-family="sans-serif" font-size="11" lengthAdjust="spacing" textLength="157" x="497" y="78.8198">refInput: HTMLInputElement</text><ellipse cx="488" cy="88.4141" rx="3" ry="3" style="stroke:#038048;stroke-width:1.0;fill:none;"/><text fill="#000000" font-family="sans-serif" font-size="11" lengthAdjust="spacing" textLength="135" x="497" y="91.6245">refErreur: HTMLElement</text><ellipse cx="488" cy="101.2188" rx="3" ry="3" style="stroke:#038048;stroke-width:1.0;fill:none;"/><text fill="#000000" font-family="sans-serif" font-size="11" lengthAdjust="spacing" textLength="169" x="497" y="104.4292">messageErreurCourant: string</text><ellipse cx="488" cy="114.0234" rx="3" ry="3" style="stroke:#038048;stroke-width:1.0;fill:none;"/><text fill="#000000" font-family="sans-serif" font-size="11" lengthAdjust="spacing" textLength="191" x="497" y="117.2339">messagesErreur: MessagesErreur</text><polygon fill="none" points="488,121.8281,492,125.8281,488,129.8281,484,125.8281" style="stroke:#B38D22;stroke-width:1.0;"/><text fill="#000000" font-family="sans-serif" font-size="11" lengthAdjust="spacing" textLength="160" x="497" y="130.0386">estPretAEtreValide: boolean</text><polygon fill="none" points="488,134.6328,492,138.6328,488,142.6328,484,138.6328" style="stroke:#B38D22;stroke-width:1.0;"/><text fill="#000000" font-family="sans-serif" font-size="11" lengthAdjust="spacing" textLength="397" x="497" y="142.8433">eventVerifierEstPretAEtreValide: EventListenerOrEventListenerObject</text><polygon fill="none" points="488,147.4375,492,151.4375,488,155.4375,484,151.4375" style="stroke:#B38D22;stroke-width:1.0;"/><text fill="#000000" font-family="sans-serif" font-size="11" lengthAdjust="spacing" textLength="289" x="497" y="155.6479">eventValider: EventListenerOrEventListenerObject</text><line style="stroke:#A80036;stroke-width:1.5;" x1="478" x2="899" y1="162.2422" y2="162.2422"/><ellipse cx="488" cy="173.2422" fill="#84BE84" rx="3" ry="3" style="stroke:#038048;stroke-width:1.0;"/><text fill="#000000" font-family="sans-serif" font-size="11" lengthAdjust="spacing" textLength="100" x="497" y="176.4526">valider(): boolean</text><ellipse cx="488" cy="186.0469" fill="#84BE84" rx="3" ry="3" style="stroke:#038048;stroke-width:1.0;"/><text fill="#000000" font-family="sans-serif" font-size="11" lengthAdjust="spacing" textLength="150" x="497" y="189.2573">forcerValidation(): boolean</text><ellipse cx="488" cy="198.8516" fill="#84BE84" rx="3" ry="3" style="stroke:#038048;stroke-width:1.0;"/><text fill="#000000" font-family="sans-serif" font-size="11" lengthAdjust="spacing" textLength="102" x="497" y="202.062">reinitialiser(): void</text><polygon fill="#FFFF44" points="488,206.6563,492,210.6563,488,214.6563,484,210.6563" style="stroke:#B38D22;stroke-width:1.0;"/><text fill="#000000" font-family="sans-serif" font-size="11" lengthAdjust="spacing" textLength="208" x="497" y="214.8667">ajouterEcouteursEvenements(): void</text><polygon fill="#FFFF44" points="488,219.4609,492,223.4609,488,227.4609,484,223.4609" style="stroke:#B38D22;stroke-width:1.0;"/><text fill="#000000" font-family="sans-serif" font-size="11" lengthAdjust="spacing" textLength="203" x="497" y="227.6714">retirerEcouteursEvenements(): void</text><polygon fill="#FFFF44" points="488,232.2656,492,236.2656,488,240.2656,484,236.2656" style="stroke:#B38D22;stroke-width:1.0;"/><text fill="#000000" font-family="sans-serif" font-size="11" lengthAdjust="spacing" textLength="181" x="497" y="240.4761">validerAttributPattern(): boolean</text><polygon fill="#FFFF44" points="488,245.0703,492,249.0703,488,253.0703,484,249.0703" style="stroke:#B38D22;stroke-width:1.0;"/><text fill="#000000" font-family="sans-serif" font-size="11" lengthAdjust="spacing" textLength="167" x="497" y="253.2808">afficherMessageErreur(): void</text><polygon fill="#FFFF44" points="488,257.875,492,261.875,488,265.875,484,261.875" style="stroke:#B38D22;stroke-width:1.0;"/><text fill="#000000" font-family="sans-serif" font-size="11" lengthAdjust="spacing" textLength="159" x="497" y="266.0854">retirerMessageErreur(): void</text><rect fill="#F24D5C" height="6" style="stroke:#C82930;stroke-width:1.0;" width="6" x="485" y="272.6797"/><text fill="#000000" font-family="sans-serif" font-size="11" lengthAdjust="spacing" textLength="186" x="497" y="278.8901">verifierEstPretAEtreValide(): void</text><!--MD5=[d8db3ce43956874b721229355a2e5c09]
class ValidationDateNaissance--><rect codeLine="25" fill="#FEFECE" filter="url(#f1gfr4p1osl41)" height="86.4141" id="ValidationDateNaissance" style="stroke:#A80036;stroke-width:1.5;" width="333" x="522" y="415.5"/><ellipse cx="610.75" cy="431.5" fill="#ADD1B2" rx="11" ry="11" style="stroke:#A80036;stroke-width:1.0;"/><path d="M613.0938,427.1719 C612.1563,426.7344 611.5625,426.5938 610.6875,426.5938 C608.0625,426.5938 606.0625,428.6719 606.0625,431.3906 L606.0625,432.5156 C606.0625,435.0938 608.1719,436.9844 611.0625,436.9844 C612.2813,436.9844 613.4375,436.6875 614.1875,436.1406 C614.7656,435.7344 615.0938,435.2813 615.0938,434.8906 C615.0938,434.4375 614.7031,434.0469 614.2344,434.0469 C614.0156,434.0469 613.8125,434.125 613.625,434.3125 C613.1719,434.7969 613.1719,434.7969 612.9844,434.8906 C612.5625,435.1563 611.875,435.2813 611.1094,435.2813 C609.0625,435.2813 607.7656,434.1875 607.7656,432.4844 L607.7656,431.3906 C607.7656,429.6094 609.0156,428.2969 610.75,428.2969 C611.3281,428.2969 611.9375,428.4531 612.4063,428.7031 C612.8906,428.9844 613.0625,429.2031 613.1563,429.6094 C613.2188,430.0156 613.25,430.1406 613.3906,430.2656 C613.5313,430.4063 613.7656,430.5156 613.9844,430.5156 C614.25,430.5156 614.5156,430.375 614.6875,430.1563 C614.7969,430 614.8281,429.8125 614.8281,429.3906 L614.8281,427.9688 C614.8281,427.5313 614.8125,427.4063 614.7188,427.25 C614.5625,426.9844 614.2813,426.8438 613.9844,426.8438 C613.6875,426.8438 613.4844,426.9375 613.2656,427.25 L613.0938,427.1719 Z " fill="#000000"/><text fill="#000000" font-family="sans-serif" font-size="12" lengthAdjust="spacing" textLength="147" x="631.25" y="435.6543">ValidationDateNaissance</text><line style="stroke:#A80036;stroke-width:1.5;" x1="523" x2="854" y1="447.5" y2="447.5"/><line style="stroke:#A80036;stroke-width:1.5;" x1="523" x2="854" y1="455.5" y2="455.5"/><ellipse cx="533" cy="466.5" fill="#84BE84" rx="3" ry="3" style="stroke:#038048;stroke-width:1.0;"/><text fill="#000000" font-family="sans-serif" font-size="11" lengthAdjust="spacing" textLength="100" x="542" y="469.7104">valider(): boolean</text><rect fill="#F24D5C" height="6" style="stroke:#C82930;stroke-width:1.0;" width="6" x="530" y="476.3047"/><text fill="#000000" font-family="sans-serif" font-size="11" lengthAdjust="spacing" textLength="307" x="542" y="482.5151">obtenirDateNaissanceMinimumPourEtreAdulte(): string</text><rect fill="#F24D5C" height="6" style="stroke:#C82930;stroke-width:1.0;" width="6" x="530" y="489.1094"/><text fill="#000000" font-family="sans-serif" font-size="11" lengthAdjust="spacing" textLength="253" x="542" y="495.3198">estUnAdulte(dateNaissance: string): boolean</text><!--MD5=[558938d639ff8abcc7f72c77f46ae38d]
class ControlesFormulaire--><rect codeLine="30" fill="#FEFECE" filter="url(#f1gfr4p1osl41)" height="48" id="ControlesFormulaire" style="stroke:#A80036;stroke-width:1.5;" width="152" x="289.5" y="122"/><ellipse cx="304.5" cy="138" fill="#B4A7E5" rx="11" ry="11" style="stroke:#A80036;stroke-width:1.0;"/><path d="M305.4531,134.7813 L307.1719,134.7813 C307.5625,134.7813 307.75,134.75 307.875,134.6719 C308.1406,134.5156 308.2813,134.2344 308.2813,133.9375 C308.2813,133.6719 308.1719,133.4063 307.9375,133.2344 C307.7656,133.125 307.625,133.0938 307.1719,133.0938 L302.0313,133.0938 C301.5938,133.0938 301.4688,133.1094 301.3125,133.2031 C301.0625,133.3594 300.9063,133.6563 300.9063,133.9375 C300.9063,134.2188 301.0469,134.4688 301.2656,134.6406 C301.4219,134.75 301.6094,134.7813 302.0313,134.7813 L303.75,134.7813 L303.75,141.2969 L302.0313,141.2969 C301.5938,141.2969 301.4688,141.3125 301.3125,141.4219 C301.0625,141.5781 300.9063,141.8594 300.9063,142.1563 C300.9063,142.4063 301.0469,142.6719 301.2656,142.8281 C301.4219,142.9531 301.625,143 302.0313,143 L307.1719,143 C307.9219,143 308.2813,142.7188 308.2813,142.1563 C308.2813,141.875 308.1719,141.625 307.9375,141.4531 C307.7656,141.3281 307.625,141.2969 307.1719,141.2969 L305.4531,141.2969 L305.4531,134.7813 Z " fill="#000000"/><text fill="#000000" font-family="sans-serif" font-size="12" font-style="italic" lengthAdjust="spacing" textLength="120" x="318.5" y="142.1543">ControlesFormulaire</text><line style="stroke:#A80036;stroke-width:1.5;" x1="290.5" x2="440.5" y1="154" y2="154"/><line style="stroke:#A80036;stroke-width:1.5;" x1="290.5" x2="440.5" y1="162" y2="162"/><!--MD5=[157279da30a78fb40f61bda61f407486]
class Formulaire--><rect codeLine="31" fill="#FEFECE" filter="url(#f1gfr4p1osl41)" height="227.2656" id="Formulaire" style="stroke:#A80036;stroke-width:1.5;" width="367" x="7" y="345"/><ellipse cx="154.25" cy="361" fill="#ADD1B2" rx="11" ry="11" style="stroke:#A80036;stroke-width:1.0;"/><path d="M156.5938,356.6719 C155.6563,356.2344 155.0625,356.0938 154.1875,356.0938 C151.5625,356.0938 149.5625,358.1719 149.5625,360.8906 L149.5625,362.0156 C149.5625,364.5938 151.6719,366.4844 154.5625,366.4844 C155.7813,366.4844 156.9375,366.1875 157.6875,365.6406 C158.2656,365.2344 158.5938,364.7813 158.5938,364.3906 C158.5938,363.9375 158.2031,363.5469 157.7344,363.5469 C157.5156,363.5469 157.3125,363.625 157.125,363.8125 C156.6719,364.2969 156.6719,364.2969 156.4844,364.3906 C156.0625,364.6563 155.375,364.7813 154.6094,364.7813 C152.5625,364.7813 151.2656,363.6875 151.2656,361.9844 L151.2656,360.8906 C151.2656,359.1094 152.5156,357.7969 154.25,357.7969 C154.8281,357.7969 155.4375,357.9531 155.9063,358.2031 C156.3906,358.4844 156.5625,358.7031 156.6563,359.1094 C156.7188,359.5156 156.75,359.6406 156.8906,359.7656 C157.0313,359.9063 157.2656,360.0156 157.4844,360.0156 C157.75,360.0156 158.0156,359.875 158.1875,359.6563 C158.2969,359.5 158.3281,359.3125 158.3281,358.8906 L158.3281,357.4688 C158.3281,357.0313 158.3125,356.9063 158.2188,356.75 C158.0625,356.4844 157.7813,356.3438 157.4844,356.3438 C157.1875,356.3438 156.9844,356.4375 156.7656,356.75 L156.5938,356.6719 Z " fill="#000000"/><text fill="#000000" font-family="sans-serif" font-size="12" lengthAdjust="spacing" textLength="64" x="174.75" y="365.1543">Formulaire</text><line style="stroke:#A80036;stroke-width:1.5;" x1="8" x2="373" y1="377" y2="377"/><rect fill="none" height="6" style="stroke:#C82930;stroke-width:1.0;" width="6" x="15" y="385"/><text fill="#000000" font-family="sans-serif" font-size="11" lengthAdjust="spacing" textLength="139" x="27" y="391.2104">refRacine: HTMLElement</text><rect fill="none" height="6" style="stroke:#C82930;stroke-width:1.0;" width="6" x="15" y="397.8047"/><text fill="#000000" font-family="sans-serif" font-size="11" lengthAdjust="spacing" textLength="189" x="27" y="404.0151">refFormulaire: HTMLFormElement</text><rect fill="none" height="6" style="stroke:#C82930;stroke-width:1.0;" width="6" x="15" y="410.6094"/><text fill="#000000" font-family="sans-serif" font-size="11" lengthAdjust="spacing" textLength="232" x="27" y="416.8198">refMessageErreurGeneral: HTMLElement</text><rect fill="none" height="6" style="stroke:#C82930;stroke-width:1.0;" width="6" x="15" y="423.4141"/><text fill="#000000" font-family="sans-serif" font-size="11" lengthAdjust="spacing" textLength="218" x="27" y="429.6245">refBoutonSubmit: HTMLButtonElement</text><rect fill="none" height="6" style="stroke:#C82930;stroke-width:1.0;" width="6" x="15" y="436.2188"/><text fill="#000000" font-family="sans-serif" font-size="11" lengthAdjust="spacing" textLength="211" x="27" y="442.4292">refBoutonReset: HTMLButtonElement</text><rect fill="none" height="6" style="stroke:#C82930;stroke-width:1.0;" width="6" x="15" y="449.0234"/><text fill="#000000" font-family="sans-serif" font-size="11" lengthAdjust="spacing" textLength="173" x="27" y="455.2339">controles: ControlesFormulaire</text><rect fill="none" height="6" style="stroke:#C82930;stroke-width:1.0;" width="6" x="15" y="461.8281"/><text fill="#000000" font-family="sans-serif" font-size="11" lengthAdjust="spacing" textLength="199" x="27" y="468.0386">controlesEnErreur: ValidationInput[]</text><line style="stroke:#A80036;stroke-width:1.5;" x1="8" x2="373" y1="474.6328" y2="474.6328"/><rect fill="#F24D5C" height="6" style="stroke:#C82930;stroke-width:1.0;" width="6" x="15" y="482.6328"/><text fill="#000000" font-family="sans-serif" font-size="11" lengthAdjust="spacing" textLength="213" x="27" y="488.8433">creerControles(): ControlesFormulaire</text><ellipse cx="18" cy="498.4375" fill="#84BE84" rx="3" ry="3" style="stroke:#038048;stroke-width:1.0;"/><text fill="#000000" font-family="sans-serif" font-size="11" lengthAdjust="spacing" textLength="341" x="27" y="501.6479">afficherEtapeCourante(focusFormulaireActif?: boolean): void</text><rect fill="#F24D5C" height="6" style="stroke:#C82930;stroke-width:1.0;" width="6" x="15" y="508.2422"/><text fill="#000000" font-family="sans-serif" font-size="11" lengthAdjust="spacing" textLength="173" x="27" y="514.4526">naviguerEtapeSuivante(): void</text><rect fill="#F24D5C" height="6" style="stroke:#C82930;stroke-width:1.0;" width="6" x="15" y="521.0469"/><text fill="#000000" font-family="sans-serif" font-size="11" lengthAdjust="spacing" textLength="192" x="27" y="527.2573">valider(event: SubmitEvent): void</text><rect fill="#F24D5C" height="6" style="stroke:#C82930;stroke-width:1.0;" width="6" x="15" y="533.8516"/><text fill="#000000" font-family="sans-serif" font-size="11" lengthAdjust="spacing" textLength="102" x="27" y="540.062">reinitialiser(): void</text><rect fill="#F24D5C" height="6" style="stroke:#C82930;stroke-width:1.0;" width="6" x="15" y="546.6563"/><text fill="#000000" font-family="sans-serif" font-size="11" lengthAdjust="spacing" textLength="213" x="27" y="552.8667">afficherMessageErreurGeneral(): void</text><rect fill="#F24D5C" height="6" style="stroke:#C82930;stroke-width:1.0;" width="6" x="15" y="559.4609"/><text fill="#000000" font-family="sans-serif" font-size="11" lengthAdjust="spacing" textLength="205" x="27" y="565.6714">retirerMessageErreurGeneral(): void</text><!--MD5=[a95c3a7d2f40d0fae3725127ef3c956a]
reverse link ValidationInput to ValidationDateNaissance--><path d="M688.5,305.656 C688.5,346.209 688.5,386.453 688.5,415.311 " fill="none" id="ValidationInput-backto-ValidationDateNaissance" style="stroke:#A80036;stroke-width:1.0;"/><polygon fill="none" points="681.5,305.45,688.5,285.45,695.5,305.45,681.5,305.45" style="stroke:#A80036;stroke-width:1.0;"/><!--MD5=[e15b77f3c4cc73bc20e4be8dc2d0b70a]
link MessagesErreur to ControlesFormulaire--><!--MD5=[133fa528e79159b9b5a1d756476168cb]
link MessagesErreur to Formulaire--><!--MD5=[864b14f081d38cd4626bb2039a0aba79]
@startuml
interface MessagesErreur {
    +requis?: string
    +pattern?: string
}
class ValidationInput {
    +nomEtiquette: string
    +refChamp: HTMLElement
    +refInput: HTMLInputElement
    +refErreur: HTMLElement
    +messageErreurCourant: string
    +messagesErreur: MessagesErreur
    #estPretAEtreValide: boolean
    #eventVerifierEstPretAEtreValide: EventListenerOrEventListenerObject
    #eventValider: EventListenerOrEventListenerObject
    +valider(): boolean
    +forcerValidation(): boolean
    +reinitialiser(): void
    #ajouterEcouteursEvenements(): void
    #retirerEcouteursEvenements(): void
    #validerAttributPattern(): boolean
    #afficherMessageErreur(): void
    #retirerMessageErreur(): void
    -verifierEstPretAEtreValide(): void
}
class ValidationDateNaissance extends ValidationInput {
    +valider(): boolean
    -obtenirDateNaissanceMinimumPourEtreAdulte(): string
    -estUnAdulte(dateNaissance: string): boolean
}
interface ControlesFormulaire
class Formulaire {
    -refRacine: HTMLElement
    -refFormulaire: HTMLFormElement
    -refMessageErreurGeneral: HTMLElement
    -refBoutonSubmit: HTMLButtonElement
    -refBoutonReset: HTMLButtonElement
    -controles: ControlesFormulaire
    -controlesEnErreur: ValidationInput[]
    -creerControles(): ControlesFormulaire
    +afficherEtapeCourante(focusFormulaireActif?: boolean): void
    -naviguerEtapeSuivante(): void
    -valider(event: SubmitEvent): void
    -reinitialiser(): void
    -afficherMessageErreurGeneral(): void
    -retirerMessageErreurGeneral(): void
}
@enduml

PlantUML version 1.2021.11beta5(Unknown compile time)
(GPL source distribution)
Java Runtime: Java(TM) SE Runtime Environment
JVM: Java HotSpot(TM) 64-Bit Server VM
Default Encoding: UTF-8
Language: en
Country: US
--></g></svg>